<?xml version="1.0" standalone="no"?>
<!DOCTYPE svg PUBLIC "-//W3C//DTD SVG 20010904//EN"
 "http://www.w3.org/TR/2001/REC-SVG-20010904/DTD/svg10.dtd">
<svg version="1.0" xmlns="http://www.w3.org/2000/svg"
 width="1744.000000pt" height="980.000000pt" viewBox="0 0 1744.000000 980.000000"
 preserveAspectRatio="xMidYMid meet">

<g transform="translate(0.000000,980.000000) scale(0.100000,-0.100000)"
fill="#000000" stroke="none">
<path d="M13290 5649 c-41 -17 -165 -63 -275 -104 -337 -125 -515 -192 -519
-196 -3 -2 -6 -42 -8 -89 l-3 -84 -95 -42 -95 -42 0 -633 0 -634 210 0 c128 0
213 -4 217 -10 4 -5 8 -866 8 -1912 l0 -1903 150 0 150 0 0 2173 c0 1194 3
2411 6 2702 3 292 5 536 5 543 -1 9 39 12 169 12 l170 0 0 125 c0 69 -3 125
-7 124 -5 0 -42 -14 -83 -30z"/>
<path d="M7383 5092 l-153 -66 0 -156 0 -155 -172 -74 c-95 -41 -200 -87 -233
-101 -33 -15 -90 -40 -128 -56 l-67 -29 2 -260 3 -260 322 -3 323 -2 2 407 3
408 128 3 127 3 0 204 c0 113 -1 205 -2 204 -2 0 -72 -30 -155 -67z"/>
<path d="M13160 5075 l0 -45 140 -1 c77 0 155 -1 173 -2 31 -1 32 0 35 46 l3
47 -175 0 -176 0 0 -45z"/>
<path d="M13707 5113 c-2 -5 -5 -25 -5 -45 l-1 -38 178 0 179 0 -3 43 -3 42
-170 3 c-94 1 -172 -1 -175 -5z"/>
<path d="M14250 5073 c0 -48 0 -48 32 -46 18 1 97 2 176 2 l142 1 0 45 0 45
-175 0 -175 0 0 -47z"/>
<path d="M1310 5075 c-22 -13 -168 -82 -492 -233 l-88 -41 -1 -675 c-1 -372
-1 -687 -1 -701 0 -14 0 -790 1 -1725 l1 -1700 310 0 310 0 0 2545 c0 1400 -3
2545 -7 2545 -5 0 -19 -7 -33 -15z"/>
<path d="M1504 4917 c-2 -7 -3 -120 -1 -252 l2 -240 3 248 2 247 23 -1 c12 -1
33 -4 47 -8 25 -7 25 -7 -6 -13 -48 -10 -54 -37 -54 -233 l0 -175 35 0 c36 0
50 22 20 34 -12 4 -15 31 -15 155 0 129 2 150 16 155 9 4 19 4 22 1 3 -3 0 -5
-6 -5 -9 0 -12 -42 -12 -149 0 -123 3 -150 15 -155 13 -5 15 21 15 199 l0 205
-50 0 c-32 0 -52 -5 -56 -13z"/>
<path d="M1627 4923 c-11 -11 -8 -453 3 -453 6 0 10 12 11 28 0 24 1 25 9 7 5
-12 9 69 9 203 1 179 -2 222 -12 222 -8 0 -17 -3 -20 -7z m20 -70 c-2 -16 -4
-5 -4 22 0 28 2 40 4 28 2 -13 2 -35 0 -50z"/>
<path d="M1807 4923 c-4 -3 -6 -142 -5 -307 l3 -301 5 305 5 305 5 -290 5
-290 5 290 c3 160 6 284 8 277 1 -9 7 -10 21 -2 11 5 31 10 45 10 l26 0 2
-222 3 -223 2 183 c2 101 7 181 11 178 10 -6 9 46 -1 62 -5 6 -5 17 -2 22 7
11 -127 14 -138 3z"/>
<path d="M2112 4923 c21 -5 33 -134 25 -288 -3 -60 -2 -148 2 -195 6 -61 8 -4
10 200 1 157 5 280 9 273 5 -8 13 -9 22 -3 8 6 27 10 42 10 l28 0 3 -307 2
-308 0 310 0 310 -80 1 c-44 0 -73 -1 -63 -3z"/>
<path d="M2408 4921 c8 -5 26 -7 41 -6 16 1 28 -3 28 -9 0 -7 -15 -12 -33 -12
-18 0 -30 4 -28 8 3 4 1 8 -4 8 -6 0 -9 -75 -9 -192 l2 -193 71 -3 71 -3 7 62
c3 34 6 127 6 205 l0 144 -82 0 c-50 0 -78 -4 -70 -9z m137 -10 c3 -5 1 -12
-5 -16 -6 -4 -10 -64 -10 -151 0 -89 -4 -144 -10 -144 -6 0 -10 57 -10 151 0
82 -4 148 -8 145 -5 -3 -9 1 -9 7 0 15 43 21 52 8z m-128 -188 c-2 -21 -4 -4
-4 37 0 41 2 58 4 38 2 -21 2 -55 0 -75z m130 0 c-2 -21 -4 -4 -4 37 0 41 2
58 4 38 2 -21 2 -55 0 -75z"/>
<path d="M1525 4899 c-11 -17 -2 -18 19 -3 17 12 17 14 4 14 -9 0 -20 -5 -23
-11z"/>
<path d="M1858 4899 c-16 -9 -18 -29 -18 -194 l0 -185 40 0 40 0 0 195 0 195
-22 0 c-13 0 -31 -5 -40 -11z"/>
<path d="M2183 4900 c-23 -9 -23 -12 -23 -195 l0 -185 30 0 30 0 0 155 c0 97
4 155 10 155 6 0 10 18 10 40 0 43 -11 48 -57 30z"/>
<path d="M13160 4850 l0 -50 175 0 175 1 0 50 0 49 -175 0 -175 0 0 -50z"/>
<path d="M13708 4893 c-2 -5 -3 -26 -3 -48 l0 -40 173 -3 172 -2 1 22 c1 13 2
34 2 48 l1 25 -171 3 c-94 1 -173 -1 -175 -5z"/>
<path d="M14250 4850 l0 -50 175 0 175 0 0 50 0 50 -175 0 -175 0 0 -50z"/>
<path d="M2101 4678 c-1 -137 2 -198 9 -188 13 19 13 390 1 390 -6 0 -10 -85
-10 -202z"/>
<path d="M4885 4709 c-11 -5 -76 -31 -145 -59 -69 -28 -134 -55 -145 -60 -11
-5 -65 -27 -120 -48 -193 -77 -260 -106 -266 -114 -3 -5 -5 -39 -5 -76 l1 -67
55 -2 c30 -1 112 -2 183 -2 l127 -1 0 -2140 0 -2140 175 0 175 0 -1 2343 c0
1288 -3 2349 -7 2358 -5 12 -13 14 -27 8z"/>
<path d="M13160 4628 l0 -48 175 0 175 0 0 45 c0 40 -3 45 -22 45 -13 0 -92 1
-176 3 l-152 2 0 -47z"/>
<path d="M13708 4673 c-3 -4 -4 -26 -4 -48 l1 -40 173 -3 c94 -1 172 -1 173 0
0 2 2 22 5 46 l5 42 -160 0 c-88 0 -166 3 -174 6 -8 3 -17 2 -19 -3z"/>
<path d="M14267 4672 c-13 -3 -17 -14 -17 -48 l0 -44 176 0 175 0 -3 46 -3 46
-156 1 c-86 1 -163 1 -172 -1z"/>
<path d="M8803 4621 c-56 -25 -112 -50 -125 -56 -23 -10 -23 -10 -26 -246 l-2
-236 -95 -43 -95 -43 0 -198 0 -197 -105 -51 -105 -50 0 -1751 0 -1750 215 0
215 0 0 1865 0 1865 60 0 60 0 2 223 3 222 53 3 52 3 0 245 c0 134 -1 244 -2
243 -2 -1 -49 -22 -105 -48z"/>
<path d="M15105 4404 c-115 -52 -223 -101 -240 -108 -82 -38 -164 -74 -195
-86 -19 -7 -41 -18 -47 -23 -9 -6 -16 -2 -23 17 l-10 26 -170 0 -170 0 0 -45
0 -45 163 -2 162 -3 0 -63 0 -63 -160 -2 -160 -2 -3 -47 -3 -48 165 0 166 0 0
-65 0 -65 -165 0 -165 0 0 -45 0 -45 165 0 165 0 0 -65 0 -65 -165 0 -165 0 0
-45 0 -45 165 0 165 0 0 -67 0 -68 -162 0 -163 0 0 -45 0 -45 145 -1 c80 -1
153 -2 163 -3 14 -1 17 -11 17 -66 l0 -65 -165 0 -165 0 0 -45 0 -46 163 2
162 1 3 -66 3 -66 -166 0 -165 0 0 -45 0 -45 165 0 166 0 -3 -66 -3 -66 -162
1 -163 2 0 -46 0 -45 165 0 165 0 0 -70 0 -70 -166 0 -165 0 3 -42 3 -43 160
-2 160 -2 3 -66 3 -65 -166 0 -165 0 0 -45 0 -46 163 2 162 1 3 -66 3 -66
-166 0 -165 0 0 -45 0 -45 165 0 166 0 -3 -66 -3 -66 -162 1 -163 2 0 -46 0
-45 165 0 165 0 0 -70 0 -70 -166 0 -165 0 3 -42 3 -42 163 1 162 1 0 -69 0
-69 -162 -2 -163 -3 -3 -42 -3 -43 165 0 166 0 0 -67 0 -68 -165 2 -165 2 0
-44 0 -45 165 0 165 0 0 -70 0 -70 -165 0 -165 0 0 -39 c0 -22 5 -41 13 -44 6
-2 81 -3 165 -3 l152 2 0 -68 0 -68 -166 0 -165 0 3 -42 3 -43 163 0 162 0 0
-67 0 -68 -166 0 -165 0 3 -43 3 -42 163 -3 162 -2 0 -71 0 -70 -162 2 -163 2
-3 -41 -3 -42 165 0 166 0 0 -65 0 -65 370 0 370 0 0 1508 c1 829 3 1841 6
2250 3 408 2 742 -3 742 -4 -1 -102 -44 -218 -96z"/>
<path d="M13160 4405 l0 -45 175 0 175 0 0 45 0 45 -175 0 -175 0 0 -45z"/>
<path d="M13707 4444 c-4 -4 -7 -25 -7 -46 l0 -38 181 0 180 0 -3 43 -3 42
-171 3 c-93 1 -173 -1 -177 -4z"/>
<path d="M14250 4405 l0 -45 175 0 175 0 0 45 0 45 -175 0 -175 0 0 -45z"/>
<path d="M1620 4400 c0 -22 5 -40 10 -40 6 0 10 18 10 40 0 22 -4 40 -10 40
-5 0 -10 -18 -10 -40z"/>
<path d="M1653 4400 c0 -25 2 -35 4 -22 2 12 2 32 0 45 -2 12 -4 2 -4 -23z"/>
<path d="M2935 4246 c-98 -44 -314 -128 -400 -155 -22 -7 -86 -35 -142 -62
l-103 -49 0 -1990 0 -1990 360 0 360 0 0 2135 c0 1702 -3 2135 -12 2134 -7 0
-35 -10 -63 -23z"/>
<path d="M13167 4224 c-4 -4 -7 -25 -7 -46 l0 -38 176 0 175 0 -3 43 -3 42
-166 3 c-91 1 -168 -1 -172 -4z"/>
<path d="M13707 4223 c-2 -5 -5 -25 -6 -45 -2 -31 1 -38 16 -38 76 -2 338 2
341 5 2 2 1 22 -3 44 l-7 41 -168 0 c-93 0 -171 -3 -173 -7z"/>
<path d="M15450 4155 l0 -45 175 0 175 0 0 45 0 45 -175 0 -175 0 0 -45z"/>
<path d="M16000 4155 l0 -45 175 0 175 0 0 45 0 45 -175 0 -175 0 0 -45z"/>
<path d="M16540 4155 l0 -45 175 0 175 0 0 45 0 45 -175 0 -175 0 0 -45z"/>
<path d="M13164 4001 c-2 -2 -4 -24 -4 -48 l0 -43 176 0 175 0 -3 46 -3 47
-168 1 c-93 0 -171 -1 -173 -3z"/>
<path d="M13707 4002 c-3 -6 -2 -29 1 -74 2 -16 17 -18 172 -18 l170 0 0 49 0
50 -170 0 c-93 0 -171 -3 -173 -7z"/>
<path d="M6360 3889 c-36 -15 -117 -49 -180 -75 -63 -25 -128 -52 -145 -59
-16 -6 -46 -18 -65 -25 -60 -23 -60 -23 -59 -144 0 -61 0 -143 0 -183 l-1 -72
-82 -31 c-46 -17 -109 -43 -140 -57 l-58 -26 0 -1608 0 -1609 360 0 361 0 -3
1760 -3 1760 53 0 52 0 0 200 c0 154 -3 200 -12 199 -7 0 -42 -14 -78 -30z"/>
<path d="M10955 3750 c-77 -32 -233 -96 -347 -142 l-208 -83 0 -1762 0 -1763
355 0 355 0 1 1858 c0 1021 1 1878 2 1905 1 26 -2 47 -8 46 -5 -1 -73 -27
-150 -59z"/>
<path d="M13160 3735 l0 -45 175 0 175 0 0 45 0 45 -175 0 -175 0 0 -45z"/>
<path d="M13705 3770 c-3 -5 -3 -25 1 -45 l6 -35 169 0 169 0 0 45 0 45 -169
0 c-101 0 -172 -4 -176 -10z"/>
<path d="M15450 3685 l0 -45 175 0 175 0 0 45 0 45 -175 0 -175 0 0 -45z"/>
<path d="M16000 3685 l0 -45 176 0 175 0 -3 43 -3 42 -172 3 -173 2 0 -45z"/>
<path d="M16547 3723 c-4 -3 -7 -24 -7 -45 l0 -38 175 0 175 0 0 45 0 45 -168
0 c-93 0 -172 -3 -175 -7z"/>
<path d="M11267 3573 c-14 -4 -17 -13 -15 -36 3 -31 5 -32 51 -35 l47 -3 0 40
c0 40 -1 41 -32 40 -18 -1 -41 -3 -51 -6z"/>
<path d="M11456 3573 c-3 -4 -6 -21 -6 -40 l0 -33 80 0 80 0 0 39 0 40 -74 0
c-41 0 -77 -3 -80 -6z"/>
<path d="M11715 3572 c-3 -3 -5 -21 -5 -39 l0 -34 82 3 82 3 1 35 0 35 -77 1
c-43 1 -80 -1 -83 -4z"/>
<path d="M11987 3573 c-14 -3 -17 -13 -15 -36 l3 -32 80 0 80 0 0 35 0 35 -65
2 c-36 0 -73 -1 -83 -4z"/>
<path d="M12238 3551 c-7 -48 -2 -51 83 -51 l80 0 -3 38 -3 37 -76 2 -77 3 -4
-29z"/>
<path d="M12500 3541 l0 -41 46 0 45 0 -3 37 c-3 36 -4 38 -45 41 l-43 3 0
-40z"/>
<path d="M13160 3515 l0 -45 175 0 175 0 0 45 0 45 -175 0 -175 0 0 -45z"/>
<path d="M13707 3548 c-2 -7 -2 -28 0 -45 l5 -33 169 0 169 0 0 45 0 45 -169
0 c-126 0 -170 -3 -174 -12z"/>
<path d="M150 3404 c-69 -34 -131 -63 -137 -63 -10 -1 -13 -342 -13 -1671 l0
-1670 143 0 144 0 6 1232 c10 1860 9 2238 -5 2237 -7 -1 -69 -30 -138 -65z"/>
<path d="M9920 3449 c0 -5 5 -7 10 -4 6 3 10 8 10 11 0 2 -4 4 -10 4 -5 0 -10
-5 -10 -11z"/>
<path d="M8951 3434 c0 -11 3 -14 6 -6 3 7 2 16 -1 19 -3 4 -6 -2 -5 -13z"/>
<path d="M11252 3383 c2 -21 6 -37 11 -35 4 1 25 2 47 2 39 0 40 1 40 35 l0
35 -51 0 -50 0 3 -37z"/>
<path d="M11450 3385 c0 -31 3 -35 28 -36 15 0 51 -1 80 -2 l52 -2 0 38 0 37
-80 0 -80 0 0 -35z"/>
<path d="M11712 3384 l3 -36 80 0 c86 0 81 -4 76 57 -1 12 -17 15 -82 15 l-80
0 3 -36z"/>
<path d="M11970 3385 l0 -35 75 0 c41 0 78 0 83 0 4 0 8 15 10 35 l3 35 -85 0
-86 0 0 -35z"/>
<path d="M12237 3393 c-3 -16 -3 -31 0 -35 2 -5 40 -8 84 -8 l79 0 0 35 0 35
-79 0 c-78 0 -79 0 -84 -27z"/>
<path d="M12500 3385 c0 -35 0 -35 45 -35 45 0 45 0 45 35 0 35 0 35 -45 35
-45 0 -45 0 -45 -35z"/>
<path d="M13167 3334 c-4 -4 -7 -26 -7 -48 l0 -41 172 2 173 1 0 44 0 43 -165
3 c-91 2 -169 0 -173 -4z"/>
<path d="M13713 3328 c-5 -7 -6 -29 -3 -48 l5 -35 168 0 167 0 0 48 0 47 -164
0 c-119 0 -166 -3 -173 -12z"/>
<path d="M11272 3262 c-19 -3 -23 -9 -20 -35 3 -31 5 -32 51 -35 l48 -3 -3 38
c-3 40 -16 46 -76 35z"/>
<path d="M11454 3261 c-2 -2 -4 -19 -4 -38 l0 -33 80 0 80 0 0 35 c0 34 -1 35
-42 37 -93 4 -109 3 -114 -1z"/>
<path d="M11714 3261 c-2 -2 -4 -20 -4 -38 l0 -34 82 3 81 3 2 33 c1 17 -1 32
-4 32 -53 4 -154 4 -157 1z"/>
<path d="M11980 3260 c-6 -4 -10 -20 -8 -36 l3 -29 80 0 80 0 3 33 c2 17 0 33
-5 33 -38 5 -144 5 -153 -1z"/>
<path d="M12283 3262 c-42 -3 -43 -4 -43 -38 l0 -34 80 0 80 0 0 35 c0 19 -3
35 -7 36 -23 3 -73 4 -110 1z"/>
<path d="M12533 3263 c-30 -4 -33 -7 -33 -39 0 -34 0 -34 46 -34 l45 0 -3 37
c-3 39 -7 42 -55 36z"/>
<path d="M15450 3215 l0 -45 175 0 175 0 0 45 0 45 -175 0 -175 0 0 -45z"/>
<path d="M16000 3215 l0 -45 175 0 175 0 0 45 0 45 -175 0 -175 0 0 -45z"/>
<path d="M16540 3215 l0 -45 175 0 175 0 0 45 0 45 -175 0 -175 0 0 -45z"/>
<path d="M11257 3103 c-3 -5 -5 -20 -5 -35 0 -27 3 -28 49 -28 l49 0 0 35 c0
35 0 35 -44 35 -25 0 -47 -3 -49 -7z"/>
<path d="M11450 3075 l0 -35 80 0 80 0 0 35 0 35 -80 0 -80 0 0 -35z"/>
<path d="M11710 3075 l0 -35 84 0 84 0 -2 33 -2 32 -82 3 -82 3 0 -36z"/>
<path d="M11972 3078 l3 -33 83 -3 82 -3 0 36 0 35 -86 0 -85 0 3 -32z"/>
<path d="M12240 3075 l0 -35 80 0 80 0 0 35 0 35 -80 0 -80 0 0 -35z"/>
<path d="M12500 3075 c0 -35 0 -35 45 -35 45 0 45 0 45 35 0 35 0 35 -45 35
-45 0 -45 0 -45 -35z"/>
<path d="M13162 3068 l3 -43 170 0 170 0 3 43 3 42 -176 0 -176 0 3 -42z"/>
<path d="M13710 3065 l0 -45 170 0 170 0 0 45 0 45 -170 0 -170 0 0 -45z"/>
<path d="M11454 2951 c-2 -2 -4 -19 -4 -38 l0 -33 80 0 80 0 0 38 0 37 -76 0
c-42 0 -78 -2 -80 -4z"/>
<path d="M11713 2943 c-3 -6 -3 -22 -1 -35 3 -22 7 -23 82 -23 l80 0 0 34 0
34 -78 1 c-52 1 -80 -3 -83 -11z"/>
<path d="M11973 2943 c-3 -6 -3 -22 -1 -35 3 -22 8 -23 83 -26 l81 -3 2 35 3
34 -82 4 c-56 2 -83 -1 -86 -9z"/>
<path d="M12538 2952 c-36 -3 -38 -5 -38 -38 0 -34 0 -34 45 -34 45 0 45 0 45
34 0 40 -3 42 -52 38z"/>
<path d="M11257 2943 c-2 -5 -3 -19 -3 -33 1 -23 6 -25 49 -28 l47 -3 0 35 c0
36 0 36 -44 36 -25 0 -47 -3 -49 -7z"/>
<path d="M12240 2915 l0 -35 80 0 80 0 0 35 0 35 -80 0 -80 0 0 -35z"/>
<path d="M13160 2845 l0 -45 175 0 175 0 0 45 0 45 -175 0 -175 0 0 -45z"/>
<path d="M13709 2886 c-3 -3 -3 -23 -1 -45 l4 -41 169 0 169 0 0 45 0 45 -168
0 c-93 0 -171 -2 -173 -4z"/>
<path d="M11257 2793 c-2 -5 -3 -19 -3 -33 1 -23 6 -25 49 -28 l47 -3 0 35 c0
36 0 36 -44 36 -25 0 -47 -3 -49 -7z"/>
<path d="M11452 2763 c2 -21 6 -37 11 -35 4 1 39 2 77 2 l70 0 0 35 0 35 -81
0 -80 0 3 -37z"/>
<path d="M11710 2765 l0 -35 79 0 79 0 4 30 c3 17 2 32 0 35 -3 3 -41 5 -84 5
l-78 0 0 -35z"/>
<path d="M11977 2794 c-4 -4 -7 -20 -7 -36 l0 -29 83 3 82 3 0 30 0 30 -75 3
c-42 1 -79 0 -83 -4z"/>
<path d="M12240 2765 l0 -35 80 0 80 0 0 35 0 35 -80 0 -80 0 0 -35z"/>
<path d="M12500 2765 c0 -35 0 -35 45 -35 45 0 45 0 45 35 0 35 0 35 -45 35
-45 0 -45 0 -45 -35z"/>
<path d="M15450 2745 l0 -45 175 0 175 0 0 45 0 45 -175 0 -175 0 0 -45z"/>
<path d="M16000 2745 l0 -45 173 2 172 3 0 40 -1 40 -172 3 -172 2 0 -45z"/>
<path d="M16540 2745 l0 -45 175 0 175 0 0 45 0 45 -175 0 -175 0 0 -45z"/>
<path d="M13160 2625 l0 -45 175 0 175 0 0 45 0 45 -175 0 -175 0 0 -45z"/>
<path d="M13710 2625 l0 -45 170 0 170 0 0 45 0 45 -170 0 -170 0 0 -45z"/>
<path d="M11257 2633 c-3 -5 -4 -19 -3 -33 1 -22 6 -25 49 -28 l47 -3 0 35 c0
36 0 36 -44 36 -25 0 -47 -3 -49 -7z"/>
<path d="M11450 2605 l0 -35 80 0 80 0 0 35 0 35 -80 0 -80 0 0 -35z"/>
<path d="M11710 2605 l0 -35 78 0 c43 0 81 2 84 5 2 3 3 18 0 35 l-4 30 -79 0
-79 0 0 -35z"/>
<path d="M11972 2608 l3 -33 80 -3 81 -3 2 36 3 35 -86 0 -86 0 3 -32z"/>
<path d="M12240 2605 l0 -35 80 0 80 0 0 35 0 35 -80 0 -80 0 0 -35z"/>
<path d="M12500 2605 c0 -35 0 -35 45 -35 45 0 45 0 45 35 0 35 0 35 -45 35
-45 0 -45 0 -45 -35z"/>
<path d="M11259 2483 c-10 -65 -11 -63 42 -63 l49 0 0 35 c0 35 0 35 -45 35
-25 0 -46 -3 -46 -7z"/>
<path d="M11457 2483 c-4 -3 -7 -19 -7 -35 l0 -28 80 0 80 0 0 35 0 35 -73 0
c-41 0 -77 -3 -80 -7z"/>
<path d="M11717 2483 c-4 -3 -7 -19 -7 -35 l0 -28 80 0 80 0 0 35 0 35 -73 0
c-41 0 -77 -3 -80 -7z"/>
<path d="M11977 2483 c-4 -3 -7 -19 -7 -35 l0 -28 85 0 c89 0 91 1 79 48 -6
20 -12 22 -78 22 -40 0 -76 -3 -79 -7z"/>
<path d="M12240 2455 l0 -35 80 0 80 0 0 35 0 35 -80 0 -80 0 0 -35z"/>
<path d="M12500 2455 c0 -35 0 -35 45 -35 45 0 45 0 45 35 0 35 0 35 -45 35
-45 0 -45 0 -45 -35z"/>
<path d="M13162 2398 l3 -43 170 0 170 0 3 43 3 42 -176 0 -176 0 3 -42z"/>
<path d="M13710 2401 c0 -27 5 -41 17 -45 19 -8 290 -7 310 1 8 3 13 21 13 44
l0 39 -170 0 -170 0 0 -39z"/>
<path d="M11254 2298 c2 -32 4 -33 49 -36 l47 -3 0 35 0 36 -49 0 -49 0 2 -32z"/>
<path d="M11450 2295 l0 -35 80 0 80 0 0 35 0 35 -80 0 -80 0 0 -35z"/>
<path d="M11712 2298 l3 -33 78 -3 77 -3 0 36 0 35 -81 0 -80 0 3 -32z"/>
<path d="M11976 2305 c-4 -14 -4 -30 -1 -35 4 -6 39 -10 79 -10 72 0 74 0 79
27 3 16 3 31 0 35 -2 5 -37 8 -78 8 -70 0 -73 -1 -79 -25z"/>
<path d="M12240 2295 l0 -35 80 0 80 0 0 35 0 35 -80 0 -80 0 0 -35z"/>
<path d="M12500 2295 c0 -35 0 -35 45 -35 45 0 45 0 45 35 0 35 0 35 -45 35
-45 0 -45 0 -45 -35z"/>
<path d="M15450 2275 l0 -45 175 0 175 0 0 45 0 45 -175 0 -175 0 0 -45z"/>
<path d="M16000 2275 l0 -45 173 2 172 3 1 43 2 42 -174 0 -174 0 0 -45z"/>
<path d="M16542 2278 l3 -43 173 -3 172 -2 0 45 0 45 -176 0 -175 0 3 -42z"/>
<path d="M13160 2175 l0 -45 175 0 175 0 0 45 0 45 -175 0 -175 0 0 -45z"/>
<path d="M13710 2175 l0 -45 170 0 170 0 0 45 0 45 -170 0 -170 0 0 -45z"/>
<path d="M11258 2150 c-6 -38 -4 -40 49 -40 43 0 43 0 43 35 0 35 0 35 -44 35
-41 0 -44 -2 -48 -30z"/>
<path d="M11450 2145 l0 -35 80 0 80 0 0 35 0 35 -80 0 -80 0 0 -35z"/>
<path d="M11717 2173 c-4 -3 -7 -19 -7 -35 l0 -28 80 0 80 0 0 35 0 35 -73 0
c-41 0 -77 -3 -80 -7z"/>
<path d="M11979 2178 c-1 -2 -2 -18 -4 -36 l-2 -33 81 3 81 3 0 30 0 30 -77 3
c-43 2 -79 2 -79 0z"/>
<path d="M12240 2145 l0 -35 80 0 80 0 0 35 0 35 -80 0 -80 0 0 -35z"/>
<path d="M12500 2145 c0 -35 0 -35 45 -35 45 0 45 0 45 35 0 35 0 35 -45 35
-45 0 -45 0 -45 -35z"/>
<path d="M11255 2009 c-4 -5 -4 -21 -1 -35 6 -21 12 -24 51 -24 45 0 45 0 45
35 0 35 0 35 -44 35 -25 0 -48 -5 -51 -11z"/>
<path d="M11452 1988 l3 -33 78 -3 77 -3 0 36 0 35 -81 0 -80 0 3 -32z"/>
<path d="M11712 1988 l3 -33 78 -3 77 -3 0 36 0 35 -81 0 -80 0 3 -32z"/>
<path d="M11972 1988 l3 -33 80 0 80 0 0 30 0 30 -83 3 -83 3 3 -33z"/>
<path d="M12240 1985 l0 -35 80 0 80 0 0 35 0 35 -80 0 -80 0 0 -35z"/>
<path d="M12500 1985 c0 -35 0 -35 45 -35 45 0 45 0 45 35 0 35 0 35 -45 35
-45 0 -45 0 -45 -35z"/>
<path d="M13160 1955 l0 -45 175 0 175 0 0 45 0 45 -175 0 -175 0 0 -45z"/>
<path d="M13710 1955 l0 -45 170 0 170 0 0 45 0 45 -170 0 -170 0 0 -45z"/>
<path d="M11260 1835 c0 -35 0 -35 45 -35 45 0 45 0 45 35 0 35 0 35 -45 35
-45 0 -45 0 -45 -35z"/>
<path d="M11452 1833 c2 -21 6 -37 11 -35 4 1 39 2 78 2 l70 0 -3 33 -3 32
-78 3 -78 3 3 -38z"/>
<path d="M11710 1835 l0 -35 80 0 80 0 0 35 0 35 -80 0 -80 0 0 -35z"/>
<path d="M11977 1863 c-4 -3 -7 -19 -7 -35 l0 -29 82 3 c70 3 82 5 84 22 6 40
-5 46 -80 46 -40 0 -76 -3 -79 -7z"/>
<path d="M12240 1835 l0 -35 80 0 80 0 0 35 0 35 -80 0 -80 0 0 -35z"/>
<path d="M12500 1835 c0 -35 0 -35 45 -35 45 0 45 0 45 35 0 35 0 35 -45 35
-45 0 -45 0 -45 -35z"/>
<path d="M15450 1805 l0 -45 175 0 175 0 0 45 0 45 -175 0 -175 0 0 -45z"/>
<path d="M16000 1805 l0 -45 169 0 c186 0 182 -2 173 63 l-4 27 -169 0 -169 0
0 -45z"/>
<path d="M16542 1808 l3 -43 173 -3 172 -2 0 45 0 45 -176 0 -175 0 3 -42z"/>
<path d="M13166 1773 c-3 -4 -6 -24 -6 -45 l0 -38 176 0 175 0 -3 43 -3 42
-166 2 c-92 1 -169 -1 -173 -4z"/>
<path d="M13738 1773 c-25 -4 -28 -8 -28 -44 l0 -39 170 0 170 0 0 39 c0 37
-2 39 -37 45 -41 6 -230 6 -275 -1z"/>
<path d="M11257 1703 c-3 -7 -3 -15 1 -50 1 -8 18 -13 47 -13 45 0 45 0 45 35
0 35 0 35 -44 35 -25 0 -47 -3 -49 -7z"/>
<path d="M11450 1675 l0 -35 80 0 80 0 0 35 0 35 -80 0 -80 0 0 -35z"/>
<path d="M11710 1675 l0 -35 80 0 80 0 0 35 0 35 -80 0 -80 0 0 -35z"/>
<path d="M11974 1675 l-1 -35 77 0 c42 0 79 2 82 5 2 3 3 18 0 35 l-4 30 -77
0 -76 0 -1 -35z"/>
<path d="M12240 1675 l0 -36 78 3 77 3 3 33 3 32 -80 0 -81 0 0 -35z"/>
<path d="M12500 1675 c0 -35 0 -35 45 -35 45 0 45 0 45 35 0 35 0 35 -45 35
-45 0 -45 0 -45 -35z"/>
<path d="M11260 1519 l0 -40 43 3 c41 3 42 5 45 41 l3 37 -45 0 -46 0 0 -41z"/>
<path d="M11450 1525 c0 -19 1 -35 3 -35 1 -1 37 -3 80 -7 l77 -5 0 41 0 41
-80 0 -80 0 0 -35z"/>
<path d="M11714 1546 c-3 -8 -4 -25 -2 -37 3 -21 8 -23 80 -23 l78 -1 0 38 0
37 -75 0 c-56 0 -77 -4 -81 -14z"/>
<path d="M11977 1554 c-4 -4 -7 -20 -7 -36 0 -28 1 -28 65 -29 36 -1 73 -2 83
-3 13 -1 17 7 17 34 l0 35 -75 3 c-42 1 -79 0 -83 -4z"/>
<path d="M12240 1525 l0 -35 81 0 80 0 -3 33 -3 32 -77 3 -78 3 0 -36z"/>
<path d="M12500 1522 c0 -36 2 -39 28 -37 66 5 63 3 60 38 -3 30 -6 32 -45 35
l-43 3 0 -39z"/>
<path d="M13162 1508 l3 -43 170 1 170 1 3 42 3 41 -176 0 -176 0 3 -42z"/>
<path d="M13710 1508 l0 -43 170 0 170 0 0 43 0 42 -170 0 -170 0 0 -42z"/>
<path d="M11260 1365 c0 -35 0 -35 45 -35 45 0 45 0 45 35 0 35 0 35 -45 35
-45 0 -45 0 -45 -35z"/>
<path d="M11450 1365 l0 -35 80 0 80 0 0 35 0 35 -80 0 -80 0 0 -35z"/>
<path d="M11712 1368 l3 -33 78 -3 77 -3 0 36 0 35 -81 0 -80 0 3 -32z"/>
<path d="M11972 1368 l3 -33 78 -3 c64 -2 77 0 78 13 5 53 9 50 -79 53 l-83 3
3 -33z"/>
<path d="M12240 1365 l0 -35 81 0 80 0 -3 33 -3 32 -77 3 -78 3 0 -36z"/>
<path d="M12500 1365 c0 -35 0 -35 45 -35 45 0 45 0 45 35 0 35 0 35 -45 35
-45 0 -45 0 -45 -35z"/>
<path d="M15452 1338 l3 -43 173 -3 172 -3 0 45 0 46 -176 0 -175 0 3 -42z"/>
<path d="M16000 1335 l0 -45 169 0 168 0 6 37 c4 20 4 40 1 45 -3 4 -81 8
-175 8 l-169 0 0 -45z"/>
<path d="M16542 1338 l3 -43 170 0 170 0 3 43 3 42 -176 0 -176 0 3 -42z"/>
<path d="M13160 1285 l0 -45 176 0 175 0 -3 43 -3 42 -172 3 -173 2 0 -45z"/>
<path d="M13710 1285 l0 -45 170 0 170 0 0 45 0 45 -170 0 -170 0 0 -45z"/>
<path d="M11258 1227 c-7 -39 1 -47 48 -47 45 0 45 0 42 32 -3 30 -6 32 -44
35 -36 2 -42 0 -46 -20z"/>
<path d="M11455 1242 c-3 -3 -5 -18 -5 -34 l0 -28 81 0 80 0 -3 33 -3 32 -72
1 c-40 0 -75 -1 -78 -4z"/>
<path d="M11717 1244 c-4 -4 -7 -20 -7 -36 l0 -28 81 0 80 0 -3 33 -3 32 -70
3 c-39 1 -74 0 -78 -4z"/>
<path d="M11979 1248 c0 -2 -3 -18 -5 -35 l-5 -33 80 0 81 0 0 34 0 34 -75 1
c-41 1 -75 0 -76 -1z"/>
<path d="M12240 1215 l0 -35 80 0 80 0 0 29 c0 35 -13 41 -96 41 l-64 0 0 -35z"/>
<path d="M12507 1244 c-4 -4 -7 -20 -7 -36 0 -27 2 -28 46 -28 45 0 45 0 42
32 -3 29 -7 33 -38 36 -20 1 -39 0 -43 -4z"/>
<path d="M13166 1103 c-3 -4 -6 -24 -6 -45 l0 -38 175 0 175 0 0 45 0 44 -169
0 c-93 0 -172 -3 -175 -6z"/>
<path d="M13710 1065 l0 -45 170 0 170 0 0 45 0 45 -170 0 -170 0 0 -45z"/>
<path d="M11260 1055 c0 -35 0 -35 45 -35 45 0 45 0 45 35 0 35 0 35 -45 35
-45 0 -45 0 -45 -35z"/>
<path d="M11450 1055 l0 -35 80 0 80 0 0 35 0 35 -80 0 -80 0 0 -35z"/>
<path d="M11710 1055 l0 -35 80 0 80 0 0 35 0 35 -80 0 -80 0 0 -35z"/>
<path d="M11974 1076 c-3 -8 -4 -23 -2 -33 3 -16 14 -18 83 -18 85 0 81 -3 76
50 -2 21 -149 22 -157 1z"/>
<path d="M12240 1055 l0 -35 80 0 80 0 0 35 0 35 -80 0 -80 0 0 -35z"/>
<path d="M12500 1055 c0 -35 0 -35 45 -35 45 0 45 0 45 35 0 35 0 35 -45 35
-45 0 -45 0 -45 -35z"/>
<path d="M11298 932 c-35 -3 -38 -6 -38 -33 0 -28 2 -29 45 -29 43 0 45 1 45
29 0 35 -3 37 -52 33z"/>
<path d="M11454 931 c-2 -2 -4 -17 -4 -33 l0 -28 80 0 80 0 0 29 0 29 -76 4
c-42 2 -78 1 -80 -1z"/>
<path d="M12038 932 c-32 -2 -58 -6 -59 -10 -6 -56 -12 -52 72 -52 79 0 91 6
81 42 -5 20 -22 24 -94 20z"/>
<path d="M11717 923 c-4 -3 -7 -17 -7 -30 0 -22 3 -23 80 -23 l80 0 0 30 0 30
-73 0 c-41 0 -77 -3 -80 -7z"/>
<path d="M12240 900 l0 -30 80 0 80 0 0 30 0 30 -80 0 -80 0 0 -30z"/>
<path d="M12500 900 c0 -29 2 -30 45 -30 43 0 45 1 45 30 0 29 -2 30 -45 30
-43 0 -45 -1 -45 -30z"/>
<path d="M15452 870 l3 -41 170 -1 170 -1 3 42 3 41 -176 0 -176 0 3 -40z"/>
<path d="M16000 870 l0 -40 170 0 170 0 0 40 0 40 -170 0 -170 0 0 -40z"/>
<path d="M16542 873 l3 -38 173 -3 172 -2 0 40 0 40 -176 0 -175 0 3 -37z"/>
<path d="M13160 841 c0 -22 5 -41 13 -44 6 -2 84 -3 172 -2 l160 3 3 41 3 41
-175 0 -176 0 0 -39z"/>
<path d="M13710 841 c0 -36 2 -39 35 -45 40 -8 198 -7 263 1 41 5 42 6 42 44
l0 39 -170 0 -170 0 0 -39z"/>
<path d="M11260 745 c0 -35 0 -35 45 -35 45 0 45 0 45 35 0 35 0 35 -45 35
-45 0 -45 0 -45 -35z"/>
<path d="M11450 745 l0 -35 80 0 80 0 0 35 0 35 -80 0 -80 0 0 -35z"/>
<path d="M11716 764 c-3 -9 -6 -24 -6 -35 0 -17 8 -19 80 -19 l80 0 0 35 0 35
-74 0 c-58 0 -75 -3 -80 -16z"/>
<path d="M11975 770 c-3 -5 -3 -21 1 -35 6 -24 9 -25 80 -25 l74 0 0 35 0 35
-74 0 c-41 0 -77 -4 -81 -10z"/>
<path d="M12240 745 l0 -35 80 0 80 0 0 35 0 35 -80 0 -80 0 0 -35z"/>
<path d="M12500 745 c0 -35 0 -35 45 -35 45 0 45 0 45 35 0 35 0 35 -45 35
-45 0 -45 0 -45 -35z"/>
<path d="M13162 618 l3 -43 170 0 170 0 3 43 3 42 -176 0 -176 0 3 -42z"/>
<path d="M13710 615 l0 -45 170 0 170 0 0 45 0 45 -170 0 -170 0 0 -45z"/>
<path d="M11288 622 c-23 -3 -28 -8 -28 -33 0 -28 2 -29 45 -29 43 0 45 1 45
29 0 31 -15 39 -62 33z"/>
<path d="M11738 622 c-24 -3 -28 -8 -28 -33 l0 -29 80 0 80 0 0 29 c0 28 -2
29 -52 33 -29 1 -65 2 -80 0z"/>
<path d="M11450 590 l0 -30 80 0 80 0 0 30 0 30 -80 0 -80 0 0 -30z"/>
<path d="M11973 590 l2 -30 78 0 77 0 0 30 0 30 -80 0 -79 0 2 -30z"/>
<path d="M12240 590 l0 -30 78 0 79 0 1 30 1 30 -80 0 -79 0 0 -30z"/>
<path d="M12500 590 c0 -29 2 -30 45 -30 43 0 45 1 45 30 0 29 -2 30 -45 30
-43 0 -45 -1 -45 -30z"/>
<path d="M11260 435 c0 -35 0 -35 45 -35 45 0 45 0 45 35 0 35 0 35 -45 35
-45 0 -45 0 -45 -35z"/>
<path d="M11450 435 l0 -35 80 0 80 0 0 35 0 35 -80 0 -80 0 0 -35z"/>
<path d="M11716 445 c-4 -14 -4 -30 -1 -35 4 -6 40 -10 81 -10 l74 0 0 35 0
35 -74 0 c-71 0 -74 -1 -80 -25z"/>
<path d="M11976 445 c-4 -14 -4 -30 -1 -35 4 -6 40 -10 81 -10 l74 0 0 35 0
35 -74 0 c-71 0 -74 -1 -80 -25z"/>
<path d="M12240 435 l0 -35 80 0 80 0 0 35 0 35 -80 0 -80 0 0 -35z"/>
<path d="M12500 435 c0 -35 0 -35 45 -35 45 0 45 0 45 35 0 35 0 35 -45 35
-45 0 -45 0 -45 -35z"/>
<path d="M13160 395 l0 -45 173 2 172 3 3 43 3 42 -175 0 -176 0 0 -45z"/>
<path d="M13710 395 l0 -45 170 0 170 0 0 45 0 45 -170 0 -170 0 0 -45z"/>
<path d="M15450 401 c0 -48 -2 -47 203 -43 l147 3 0 40 0 39 -175 0 -175 0 0
-39z"/>
<path d="M16000 400 l0 -40 173 0 173 0 -4 40 -4 40 -169 0 -169 0 0 -40z"/>
<path d="M16540 400 l0 -40 175 0 175 0 0 40 0 40 -175 0 -175 0 0 -40z"/>
<path d="M11483 312 c-29 -3 -33 -7 -33 -33 l0 -29 80 0 80 0 0 29 c0 28 -3
29 -47 33 -27 1 -63 2 -80 0z"/>
<path d="M11260 280 c0 -29 2 -30 45 -30 43 0 45 1 45 30 0 29 -2 30 -45 30
-43 0 -45 -1 -45 -30z"/>
<path d="M11717 303 c-4 -3 -7 -17 -7 -30 0 -22 3 -23 80 -23 l80 0 0 30 0 30
-73 0 c-41 0 -77 -3 -80 -7z"/>
<path d="M11975 290 c-11 -33 3 -40 81 -40 l74 0 0 30 0 30 -74 0 c-66 0 -75
-2 -81 -20z"/>
<path d="M12240 280 l0 -30 80 0 80 0 0 30 0 30 -80 0 -80 0 0 -30z"/>
<path d="M12500 280 c0 -29 2 -30 45 -30 43 0 45 1 45 30 0 29 -2 30 -45 30
-43 0 -45 -1 -45 -30z"/>
<path d="M13308 212 l-148 -3 0 -39 0 -40 175 0 175 0 0 33 c0 39 -9 52 -35
52 -11 0 -86 -1 -167 -3z"/>
<path d="M13710 170 l0 -40 170 0 170 0 0 40 0 40 -170 0 -170 0 0 -40z"/>
<path d="M11260 125 c0 -35 0 -35 45 -35 45 0 45 0 45 35 0 35 0 35 -45 35
-45 0 -45 0 -45 -35z"/>
<path d="M11450 125 l0 -35 80 0 80 0 0 35 0 35 -80 0 -80 0 0 -35z"/>
<path d="M11714 146 c-3 -8 -4 -23 -2 -33 3 -15 15 -18 81 -21 l77 -3 0 36 0
35 -75 0 c-57 0 -77 -4 -81 -14z"/>
<path d="M11975 150 c-3 -5 -3 -21 1 -35 6 -24 9 -25 80 -25 l74 0 0 35 0 35
-74 0 c-41 0 -77 -4 -81 -10z"/>
<path d="M12240 125 l0 -35 80 0 80 0 0 35 0 35 -80 0 -80 0 0 -35z"/>
<path d="M12500 124 l0 -35 43 3 c39 3 42 5 45 36 3 32 3 32 -42 32 -46 0 -46
0 -46 -36z"/>
</g>
</svg>
